<svg width="206" height="206" viewBox="0 0 206 206" fill="none" xmlns="http://www.w3.org/2000/svg">
<path d="M96.4699 2.18062C96.4853 0.919891 95.4174 -0.0883938 94.1615 0.0228544C42.2704 4.61935 1.28069 47.8808 0.626854 101.087C-0.070311 157.82 45.3552 204.376 102.088 205.073C130.598 205.423 156.541 194.12 175.377 175.601C176.277 174.716 176.196 173.252 175.225 172.447L98.1748 108.594C96.2887 107.031 95.21 104.7 95.2401 102.25L96.4699 2.18062Z" fill="#6578B9"/>
<path d="M185.584 159.964C186.555 160.769 188.007 160.577 188.71 159.53C197.623 146.25 203.524 130.763 205.42 114.045C205.562 112.792 204.58 111.705 203.319 111.689L132.303 110.817C130.264 110.791 129.326 113.343 130.896 114.644L185.584 159.964Z" fill="#6578B9"/>
<path d="M203.519 95.4698C204.78 95.4853 205.788 94.4179 205.677 93.162C201.385 44.709 163.382 5.76054 115.049 0.279483C113.797 0.137412 112.705 1.11921 112.689 2.37994L111.599 91.0958C111.577 92.8874 113.012 94.3576 114.803 94.3796L203.519 95.4698Z" fill="#6578B9"/>
</svg>
