<svg width="188" height="188" viewBox="0 0 188 188" fill="none" xmlns="http://www.w3.org/2000/svg">
<path d="M0 20.8333V166.667C0 172.192 2.19493 177.491 6.10194 181.398C10.0089 185.305 15.308 187.5 20.8333 187.5H166.667C172.192 187.5 177.491 185.305 181.398 181.398C185.305 177.491 187.5 172.192 187.5 166.667V20.8333C187.5 15.308 185.305 10.0089 181.398 6.10194C177.491 2.19493 172.192 0 166.667 0H20.8333C15.308 0 10.0089 2.19493 6.10194 6.10194C2.19493 10.0089 0 15.308 0 20.8333ZM72.9167 41.6667H156.25V62.5H72.9167V41.6667ZM72.9167 83.3333H156.25V104.167H72.9167V83.3333ZM72.9167 125H156.25V145.833H72.9167V125ZM31.25 41.6667H52.0833V62.5H31.25V41.6667ZM31.25 83.3333H52.0833V104.167H31.25V83.3333ZM31.25 125H52.0833V145.833H31.25V125Z" fill="#6578B9"/>
</svg>
