<svg width="214" height="194" viewBox="0 0 214 194" fill="none" xmlns="http://www.w3.org/2000/svg">
<path d="M106.504 28.5C121.235 28.5 133.539 17.0198 135.004 2.67188C135.138 1.33594 133.668 0 132.332 0C131.61 0.000717446 130.894 0.136652 130.221 0.400782C130.132 0.436407 120.825 4.00781 106.504 4.00781C92.1827 4.00781 82.8579 0.445313 82.7866 0.400782C82.0277 0.136757 81.23 0.00129989 80.4265 0H80.3997C80.0668 0.0176421 79.7407 0.100807 79.44 0.24473C79.1392 0.388652 78.8699 0.590503 78.6473 0.838713C78.4248 1.08692 78.2534 1.37661 78.143 1.69118C78.0326 2.00575 77.9853 2.33902 78.004 2.67188C79.4958 16.9931 91.8086 28.5 106.504 28.5Z" fill="#6578B9"/>
<path d="M208.982 20.2665L151.408 0.111611C151.161 0.0256011 150.899 -0.00517521 150.639 0.0214611C150.38 0.0480975 150.129 0.131495 149.905 0.265751C149.681 0.400006 149.489 0.581838 149.344 0.798373C149.198 1.01491 149.101 1.26085 149.061 1.5188C147.395 11.4986 142.244 20.564 134.523 27.103C126.802 33.642 117.012 37.2305 106.894 37.2305C96.7766 37.2305 86.9867 33.642 79.2658 27.103C71.5449 20.564 66.3935 11.4986 64.7277 1.5188C64.6887 1.25656 64.5916 1.00635 64.4435 0.786419C64.2954 0.56649 64.1001 0.38239 63.8718 0.247552C63.6435 0.112714 63.388 0.0305402 63.1239 0.00702192C62.8598 -0.0164963 62.5938 0.019235 62.3453 0.111611L4.77087 20.2665C3.1594 20.8306 1.80408 21.9546 0.951627 23.4339C0.0991765 24.9133 -0.193719 26.6495 0.126259 28.3266L7.53181 67.5141C7.81681 69.0078 8.5722 70.3711 9.68751 71.4047C10.8028 72.4383 12.2196 73.0879 13.7306 73.2586L35.4974 75.7168C36.386 75.817 37.2044 76.2476 37.7901 76.9233C38.3758 77.5989 38.686 78.4701 38.6591 79.3639L35.395 186.64C35.3517 188.022 35.7119 189.388 36.4315 190.569C37.1511 191.75 38.199 192.697 39.4474 193.293C40.4851 193.761 41.613 193.997 42.7516 193.983H171.002C172.14 193.997 173.268 193.761 174.306 193.293C175.554 192.697 176.602 191.75 177.322 190.569C178.041 189.388 178.401 188.022 178.358 186.64L175.094 79.3639C175.067 78.4701 175.377 77.5989 175.963 76.9233C176.549 76.2476 177.367 75.817 178.256 75.7168L200.023 73.2586C201.534 73.0879 202.95 72.4383 204.066 71.4047C205.181 70.3711 205.936 69.0078 206.221 67.5141L213.627 28.3266C213.947 26.6495 213.654 24.9133 212.802 23.4339C211.949 21.9546 210.594 20.8306 208.982 20.2665Z" fill="#6578B9"/>
</svg>
