<svg width="172" height="186" viewBox="0 0 172 186" fill="none" xmlns="http://www.w3.org/2000/svg">
<path d="M86.8774 92.0659C112.639 92.3847 133.13 72.3942 133.449 46.6329C133.768 20.8716 113.777 0.380014 88.0162 0.0611712C62.2548 -0.257672 41.7633 19.7328 41.4445 45.4942C41.1256 71.2555 61.1161 91.747 86.8774 92.0659ZM171.44 174.089C160.06 127.019 112.582 96.9849 65.5114 108.365C34.1273 116.258 8.98999 139.872 0.311013 171.971C-0.66597 176.56 2.02585 182.114 7.53474 183.103C8.45479 183.114 9.37483 183.125 9.37483 183.125L162.103 185.016C167.623 185.084 171.349 181.449 171.417 175.929C171.428 175.009 171.44 174.089 171.44 174.089Z" fill="#6578B9"/>
</svg>
